<?xml version="1.0" standalone="no"?><!DOCTYPE svg PUBLIC "-//W3C//DTD SVG 1.1//EN" "http://www.w3.org/Graphics/SVG/1.1/DTD/svg11.dtd"><svg t="1728021450798" class="icon" viewBox="0 0 1024 1024" version="1.1" xmlns="http://www.w3.org/2000/svg" p-id="8750" xmlns:xlink="http://www.w3.org/1999/xlink" width="200" height="200"><path d="M701.44 506.88c0-199.68-153.6-358.4-348.16-358.4S0 307.2 0 501.76c0 199.68 153.6 363.52 348.16 363.52s353.28-158.72 353.28-358.4z m-184.32 10.24v61.44H404.48v35.84h112.64v51.2H404.48v71.68H296.96V665.6H184.32v-61.44h112.64v-35.84H184.32V506.88h81.92L168.96 343.04h117.76l61.44 133.12L409.6 343.04h122.88L440.32 512h76.8v5.12z m465.92 256h-312.32c-61.44 76.8-148.48 133.12-250.88 148.48h568.32c20.48 0 35.84-15.36 35.84-35.84V819.2c0-35.84-15.36-46.08-40.96-46.08z m0-445.44h-261.12c20.48 46.08 35.84 97.28 40.96 148.48h225.28c20.48 0 35.84-15.36 35.84-40.96V363.52c0-25.6-15.36-35.84-40.96-35.84z m-302.08-76.8h163.84c20.48 0 35.84-15.36 35.84-40.96V138.24c0-25.6-15.36-40.96-40.96-40.96H471.04c61.44 20.48 122.88 56.32 168.96 107.52 15.36 15.36 30.72 30.72 40.96 46.08z m271.36 409.6v-76.8c0-20.48-15.36-35.84-35.84-35.84h-153.6c-5.12 51.2-20.48 102.4-40.96 148.48H921.6c15.36 0 30.72-15.36 30.72-35.84z" fill="#c60202" p-id="8751"></path></svg>