<?xml version="1.0" standalone="no"?><!DOCTYPE svg PUBLIC "-//W3C//DTD SVG 1.1//EN" "http://www.w3.org/Graphics/SVG/1.1/DTD/svg11.dtd"><svg t="1728021074843" class="icon" viewBox="0 0 1024 1024" version="1.1" xmlns="http://www.w3.org/2000/svg" p-id="4531" xmlns:xlink="http://www.w3.org/1999/xlink" width="200" height="200"><path d="M829.558333 628.104167c50.825-68.2875 114.108333-153.241667 79.379167-318.633333-18.45-87.845833-67.5625-154.620833-146.025-198.545833-78.466667-43.925-165.3875-53.179167-224.470833-53.179167-43.870833 0-86.675 5.120833-123.9 14.775-88.045833 22.845833-167.8875 84.691667-213.5875 165.583333-35.258333 62.433333-45.104167 129.016667-27.770833 187.445833 1.3125 4.466667 0.529167 9.458333-2.170833 13.6625-4.858333 7.483333-12.141667 17.658333-20.55 29.475-22.716667 31.708333-50.945833 71.166667-61.258333 99.466667-4.141667 11.366667-3.35 24.0375 2.233333 34.8 5.5875 10.708333 15.5 18.658333 27.054167 21.741667 2.3625 0.7125 13.395833 4.925 19.375 7.2125 6.2375 2.366667 11.620833 4.408333 13.004167 4.8625 15.425 4.929167 14.570833 69.070833 14.05 107.420833-0.129167 9.841667-0.2625 19.820833-0.2625 29.604167 0 50.495833 32.829167 80.691667 87.720833 80.691667 15.620833 0 29.475-2.3 38.404167-4.2625 7.416667-1.654167 14.766667-2.495833 21.275-2.495833 26.391667 0 37.166667 12.008333 37.166667 41.3625 0 8.929167 0.258333 16.941667 0.716667 23.9625 1.508333 21.208333 15.3625 39.925 35.325 47.658333 15.883333 6.108333 74.779167 26.070833 166.708333 26.070833l0 0c74.645833 0 149.5625-13.266667 222.6375-39.333333 10.241667-3.675 18.516667-11.616667 22.583333-21.729167 4.079167-10.175 3.616667-21.666667-1.3-31.45-12.941667-25.8-43.3375-86.145833-22.195833-168.2125C782.55 691.2625 804.345833 662.054167 829.558333 628.104167L829.558333 628.104167 829.558333 628.104167zM759.895833 910.695833c-68.345833 24.220833-138.270833 36.566667-207.925 36.566667-67.566667 0-123.108333-12.075-152.458333-23.433333-5.716667-2.233333-9.716667-7.541667-10.1125-13.529167-0.3875-6.029167-0.658333-13.191667-0.658333-21.204167 0-50.683333-28.695833-80.891667-76.6875-80.891667-9.391667 0-19.375 1.116667-29.670833 3.35-5.783333 1.245833-17.275 3.354167-30.004167 3.354167-42.491667 0-48.195833-20.820833-48.195833-41.166667 0-9.658333 0.129167-19.375 0.2625-29.0875 0.920833-67.758333 1.704167-131.841667-41.5625-145.625-1.504167-0.529167-5.9-2.170833-10.954167-4.141667-14.5125-5.5125-20.158333-7.616667-23.116667-8.404167-1.25-0.329167-1.966667-1.179167-2.3-1.841667-0.325-0.658333-0.654167-1.704167-0.195833-2.95 8.529167-23.245833 36.1125-61.854167 56.3375-90.020833 8.729167-12.204167 16.216667-22.716667 21.6-30.991667 8.995833-13.920833 11.491667-30.854167 6.8875-46.416667-14.241667-48.125-5.641667-103.808333 24.291667-156.791667 39.920833-70.645833 112.341667-126.9125 189.033333-146.741667 34.008333-8.8 73.466667-13.454167 113.983333-13.454167 66.9625 0 288.816667 15.883333 331.825 220.345833 31.120833 147.925-21.470833 218.570833-72.358333 286.925-26.5875 35.7125-51.666667 69.395833-62.5625 111.616667C710.916667 811.220833 744.6 880.291667 759.895833 910.695833L759.895833 910.695833 759.895833 910.695833zM554.783333 407.829167c-58.033333-11.425-85.416667-19.958333-85.416667-49.045833 0-21.016667 9.125-35.591667 27.775-44.716667 32.5-15.695833 86.466667-9.5875 115.425 13.191667 10.825 8.5375 26.391667 6.6375 34.8625-4.2 8.470833-10.7625 6.629167-26.395833-4.2-34.8-19.833333-15.620833-45.6375-25.5375-72.554167-29.941667L570.675 214.195833c0-13.720833-11.1-24.816667-24.816667-24.816667-13.725 0-24.820833 11.095833-24.820833 24.816667L521.0375 256.875c-16.283333 1.841667-31.9125 5.845833-45.629167 12.541667-35.983333 17.4625-55.8125 49.183333-55.8125 89.358333 0 73.070833 72.554167 87.383333 125.470833 97.754167 57.116667 11.229167 77.4125 18.908333 77.4125 39.791667 0 20.416667-8.6 34.8-26.325 43.920833-31.191667 16.220833-83.4 11.425-114.05-10.304167-11.2375-7.879167-26.720833-5.325-34.604167 5.9125-7.95 11.225-5.325 26.65 5.904167 34.658333 19.041667 13.525 42.870833 22.183333 67.625 26.195833l0 59.416667c0 13.720833 11.095833 24.825 24.820833 24.825 13.7125 0 24.816667-11.108333 24.816667-24.825l0-58.695833c17.333333-1.975 34.083333-5.579167 48.2625-12.933333 34.270833-17.729167 53.175-48.979167 53.175-88.1125C672.241667 430.933333 607.116667 418.133333 554.783333 407.829167L554.783333 407.829167 554.783333 407.829167z" fill="#272635" p-id="4532"></path></svg>